name Walk6.mot
datacolumns 19
datarows 17
range 2.38000000 2.39600000
endheader

                time	   L_ground_force_vx	   L_ground_force_vy	   L_ground_force_vz	   L_ground_force_px	   L_ground_force_py	   L_ground_force_pz	   R_ground_force_vx	   R_ground_force_vy	   R_ground_force_vz	   R_ground_force_px	   R_ground_force_py	   R_ground_force_pz	   L_ground_torque_x	   L_ground_torque_y	   L_ground_torque_z	   R_ground_torque_x	   R_ground_torque_y	   R_ground_torque_z	
          2.38000000	          0.00000000	          0.00000000	         -0.00000000	         -0.00000000	          0.00000000	         -0.00000000	         -1.13020017	          2.39282707	          0.89169295	          0.09715515	          0.00000000	          0.01818023	          0.00000000	          0.00000000	          0.00000000	          0.00000000	          0.02001178	          0.00000000	
          2.38100000	          0.00000000	          0.00000000	         -0.00000000	         -0.00000000	          0.00000000	         -0.00000000	         -1.35763104	          1.40267581	          0.84534178	          0.09095421	          0.00000000	          0.01695668	          0.00000000	          0.00000000	          0.00000000	          0.00000000	          0.02027393	          0.00000000	
          2.38200000	          0.00000000	          0.00000000	         -0.00000000	         -0.00000000	          0.00000000	         -0.00000000	         -1.56059461	          0.49141096	          0.79973723	          0.08493681	          0.00000000	          0.01577308	          0.00000000	          0.00000000	          0.00000000	          0.00000000	          0.02043717	          0.00000000	
          2.38300000	          0.00000000	          0.00000000	         -0.00000000	         -0.00000000	          0.00000000	         -0.00000000	         -1.74040426	         -0.34423130	          0.75498815	          0.07911007	          0.00000000	          0.01463052	          0.00000000	          0.00000000	          0.00000000	          0.00000000	          0.02050932	          0.00000000	
          2.38400000	          0.00000000	          0.00000000	         -0.00000000	         -0.00000000	          0.00000000	         -0.00000000	         -1.89834915	         -1.10752299	          0.71119090	          0.07347981	          0.00000000	          0.01352981	          0.00000000	          0.00000000	          0.00000000	          0.00000000	          0.02049782	          0.00000000	
          2.38500000	          0.00000000	          0.00000000	         -0.00000000	         -0.00000000	          0.00000000	         -0.00000000	         -2.03569150	         -1.80173138	          0.66843004	          0.06805059	          0.00000000	          0.01247157	          0.00000000	          0.00000000	          0.00000000	          0.00000000	          0.02040985	          0.00000000	
          2.38600000	          0.00000000	          0.00000000	         -0.00000000	         -0.00000000	          0.00000000	         -0.00000000	         -2.15366402	         -2.43010695	          0.62677905	          0.06282585	          0.00000000	          0.01145617	          0.00000000	          0.00000000	          0.00000000	          0.00000000	          0.02025223	          0.00000000	
          2.38700000	          0.00000000	          0.00000000	         -0.00000000	         -0.00000000	          0.00000000	         -0.00000000	         -2.25346783	         -2.99587261	          0.58630095	          0.05780792	          0.00000000	          0.01048382	          0.00000000	          0.00000000	          0.00000000	          0.00000000	          0.02003149	          0.00000000	
          2.38800000	          0.00000000	          0.00000000	         -0.00000000	         -0.00000000	          0.00000000	         -0.00000000	         -2.33627057	         -3.50221381	          0.54704897	          0.05299820	          0.00000000	          0.00955453	          0.00000000	          0.00000000	          0.00000000	          0.00000000	          0.01975382	          0.00000000	
          2.38900000	          0.00000000	          0.00000000	         -0.00000000	         -0.00000000	          0.00000000	         -0.00000000	         -2.40320486	         -3.95226971	          0.50906719	          0.04839715	          0.00000000	          0.00866814	          0.00000000	          0.00000000	          0.00000000	          0.00000000	          0.01942511	          0.00000000	
          2.39000000	          0.00000000	          0.00000000	         -0.00000000	         -0.00000000	          0.00000000	         -0.00000000	         -2.45536696	         -4.34912529	          0.47239113	          0.04400443	          0.00000000	          0.00782436	          0.00000000	          0.00000000	          0.00000000	          0.00000000	          0.01905095	          0.00000000	
          2.39100000	          0.00000000	          0.00000000	         -0.00000000	         -0.00000000	          0.00000000	         -0.00000000	         -2.49381576	         -4.69580421	          0.43704836	          0.03981890	          0.00000000	          0.00702276	          0.00000000	          0.00000000	          0.00000000	          0.00000000	          0.01863661	          0.00000000	
          2.39200000	          0.00000000	          0.00000000	         -0.00000000	         -0.00000000	          0.00000000	         -0.00000000	         -2.51957194	         -4.99526270	          0.40305908	          0.03583878	          0.00000000	          0.00626278	          0.00000000	          0.00000000	          0.00000000	          0.00000000	          0.01818708	          0.00000000	
          2.39300000	          0.00000000	          0.00000000	         -0.00000000	         -0.00000000	          0.00000000	         -0.00000000	         -2.53361734	         -5.25038405	          0.37043664	          0.03206165	          0.00000000	          0.00554374	          0.00000000	          0.00000000	          0.00000000	          0.00000000	          0.01770705	          0.00000000	
          2.39400000	          0.00000000	          0.00000000	         -0.00000000	         -0.00000000	          0.00000000	         -0.00000000	         -2.53689460	         -5.46397393	          0.33918811	          0.02848450	          0.00000000	          0.00486490	          0.00000000	          0.00000000	          0.00000000	          0.00000000	          0.01720091	          0.00000000	
          2.39500000	          0.00000000	          0.00000000	         -0.00000000	         -0.00000000	          0.00000000	         -0.00000000	         -2.53030687	         -5.63875643	          0.30931474	          0.02510386	          0.00000000	          0.00422539	          0.00000000	          0.00000000	          0.00000000	          0.00000000	          0.01667282	          0.00000000	
          2.39600000	          0.00000000	          0.00000000	         -0.00000000	         -0.00000000	          0.00000000	         -0.00000000	         -2.51471782	         -5.77737064	          0.28081250	          0.02191580	          0.00000000	          0.00362428	          0.00000000	          0.00000000	          0.00000000	          0.00000000	          0.01612662	          0.00000000	
